<svg id="Icon" xmlns="http://www.w3.org/2000/svg" viewBox="0 0 1024 1024"><defs><style>.cls-1{fill:#7289da;}.cls-2{fill:#fff;}</style></defs><title>PreMiD_Icon</title><rect id="Background" class="cls-1" x="162" y="252.21" width="700" height="500" rx="50"/><path id="Icon-2" data-name="Icon" class="cls-2" d="M847.65,266.56A49.08,49.08,0,0,0,813,252.21H211a49,49,0,0,0-49,49v409a49,49,0,0,0,49,49H813a49,49,0,0,0,49-49v-409A49.08,49.08,0,0,0,847.65,266.56Z"/><polygon id="PlayIcon" class="cls-1" points="255.45 658.21 255.45 371.74 462.21 514.98 255.45 658.21"/><path id="Line1" class="cls-1" d="M549.89,418a22,22,0,0,1,15.66-6.48H669.68a22.14,22.14,0,1,1,0,44.27H565.55A22.14,22.14,0,0,1,549.89,418Z"/><path id="Line2" class="cls-1" d="M783.51,530.64a22,22,0,0,1-15.66,6.47H565.64A22.29,22.29,0,0,1,550,530.64a22.14,22.14,0,0,1,15.67-37.8H767.85a22.15,22.15,0,0,1,15.66,37.8Z"/><path id="Line3" class="cls-1" d="M783.51,611.75a22,22,0,0,1-15.66,6.48H565.64A22.29,22.29,0,0,1,550,611.75a22,22,0,0,1-6.47-15.66A22.29,22.29,0,0,1,550,580.42,22,22,0,0,1,565.64,574H767.85a22.15,22.15,0,0,1,15.66,37.8Z"/></svg>