<?xml version="1.0" encoding="UTF-8" standalone="no"?>
<!DOCTYPE svg PUBLIC "-//W3C//DTD SVG 1.1//EN" "http://www.w3.org/Graphics/SVG/1.1/DTD/svg11.dtd">
<svg width="100%" height="100%" viewBox="0 0 4267 4267" version="1.1" xmlns="http://www.w3.org/2000/svg" xmlns:xlink="http://www.w3.org/1999/xlink" xml:space="preserve" xmlns:serif="http://www.serif.com/" style="fill-rule:evenodd;clip-rule:evenodd;stroke-linejoin:round;stroke-miterlimit:1.41421;">
    <g id="Icon" transform="matrix(4.16667,0,0,4.16667,0,0)">
        <g transform="matrix(0.351086,0,0,0.351086,-236.983,-236.983)">
            <path d="M3383.33,1091.67C3498.39,1091.67 3591.67,1184.94 3591.67,1300L3591.67,2966.67C3591.67,3081.73 3498.39,3175 3383.33,3175L883.333,3175C768.274,3175 675,3081.73 675,2966.67L675,1300C675,1184.94 768.274,1091.67 883.333,1091.67L3383.33,1091.67Z" style="fill:white;"/>
        </g>
        <g transform="matrix(1.46286,0,0,1.46286,-236.983,-236.983)">
            <path d="M260,374.5L460,512L260,649.5L260,374.5Z" style="fill:rgb(114,137,218);"/>
        </g>
        <g transform="matrix(1.46286,0,0,1.46286,-236.983,-236.983)">
            <path d="M777.5,564.5C789.939,564.512 800,574.581 800,587L800,587C800,599.426 789.926,609.5 777.5,609.5L572.5,609.5C560.074,609.5 550,599.426 550,587L550,587C550,574.581 560.061,564.512 572.5,564.5L777.5,564.5Z" style="fill:rgb(114,137,218);"/>
        </g>
        <g transform="matrix(1.46286,0,0,1.46286,-236.983,-236.983)">
            <path d="M572.5,489.5C560.074,489.5 550,499.574 550,512L550,512C550,524.426 560.074,534.5 572.5,534.5L777.5,534.5C789.926,534.5 800,524.426 800,512L800,512C800,499.574 789.926,489.5 777.5,489.5L572.5,489.5Z" style="fill:rgb(114,137,218);"/>
        </g>
        <g transform="matrix(1.46286,0,0,1.46286,-236.983,-236.983)">
            <path d="M572.5,414.5C566.532,414.5 560.809,416.871 556.59,421.09C552.37,425.31 550,431.033 550,437L550,437C550,442.967 552.37,448.69 556.59,452.91C560.809,457.129 566.532,459.5 572.5,459.5L677.5,459.5C683.467,459.5 689.19,457.129 693.41,452.91C697.629,448.69 700,442.967 700,437L700,437C700,431.033 697.629,425.31 693.41,421.09C689.19,416.871 683.467,414.5 677.5,414.5L572.5,414.5Z" style="fill:rgb(114,137,218);"/>
        </g>
    </g>
</svg>
