<svg xmlns="http://www.w3.org/2000/svg" xmlns:xlink="http://www.w3.org/1999/xlink" width="100%" height="100%" fill-rule="evenodd" stroke-linejoin="round" stroke-miterlimit="1.414" clip-rule="evenodd" version="1.1" viewBox="0 0 4267 4267" xml:space="preserve"><g transform="matrix(1.46286,0,0,1.46286,-987.429,-987.429)"><g id="Icon"><path fill="#fff" d="M3383.33,1091.67C3498.39,1091.67 3591.67,1184.94 3591.67,1300L3591.67,2966.67C3591.67,3081.73 3498.39,3175 3383.33,3175L883.333,3175C768.274,3175 675,3081.73 675,2966.67L675,1300C675,1184.94 768.274,1091.67 883.333,1091.67L3383.33,1091.67ZM1083.33,1560.42L1916.67,2133.33L1083.33,2706.25L1083.33,1560.42ZM3239.58,2539.58C3291.36,2539.58 3333.33,2497.61 3333.33,2445.83L3333.33,2445.83C3333.33,2394.09 3291.41,2352.13 3239.58,2352.08L2385.42,2352.08C2333.59,2352.13 2291.67,2394.09 2291.67,2445.83L2291.67,2445.83C2291.67,2497.61 2333.64,2539.58 2385.42,2539.58L3239.58,2539.58ZM2385.42,2039.58C2333.64,2039.58 2291.67,2081.56 2291.67,2133.33L2291.67,2133.33C2291.67,2185.11 2333.64,2227.08 2385.42,2227.08L3239.58,2227.08C3291.36,2227.08 3333.33,2185.11 3333.33,2133.33L3333.33,2133.33C3333.33,2081.56 3291.36,2039.58 3239.58,2039.58L2385.42,2039.58ZM2385.41,1727.08C2360.55,1727.08 2336.7,1736.96 2319.12,1754.54C2301.54,1772.12 2291.66,1795.97 2291.66,1820.83L2291.66,1820.83C2291.66,1845.7 2301.54,1869.54 2319.12,1887.12C2336.7,1904.71 2360.55,1914.58 2385.41,1914.58L2822.91,1914.58C2847.78,1914.58 2871.62,1904.71 2889.21,1887.12C2906.79,1869.54 2916.66,1845.7 2916.66,1820.83L2916.66,1820.83C2916.66,1795.97 2906.79,1772.12 2889.21,1754.54C2871.62,1736.96 2847.78,1727.08 2822.91,1727.08L2385.41,1727.08Z"/></g></g></svg>